<svg xmlns="http://www.w3.org/2000/svg" viewBox="7.81594 154.681 122.5 117.6">
	<path stroke="none" fill="rgba(0,0,0,0.3)"  
	d="
M129.069305,178.238373 
	C129.477676,181.773987 130.095810,184.896286 130.113678,188.022003 
	C130.210800,205.006165 130.209534,221.991364 130.146790,238.975845 
	C130.073929,258.702148 116.582443,272.131683 96.884743,272.155853 
	C78.068367,272.178955 59.251858,272.196228 40.435566,272.150299 
	C21.754457,272.104675 7.973019,258.329712 7.940133,239.704758 
	C7.909262,222.220551 7.906207,204.736176 7.941022,187.251984 
	C7.977585,168.890045 21.587963,155.050735 40.054897,154.885086 
	C59.036301,154.714798 78.020561,154.790115 97.003227,154.856323 
	C112.629524,154.910828 123.623306,162.872284 129.069305,178.238373 
M93.865173,246.698395 
	C96.139267,247.897781 98.413368,249.097153 101.004852,250.463913 
	C101.004852,225.557999 101.004852,201.379913 101.004852,176.327972 
	C79.243881,188.888672 58.161190,201.057846 36.517776,213.550690 
	C55.815449,224.688889 74.527260,235.488953 93.865173,246.698395 
z"/>
	<path stroke="none"
	d="
M93.552124,246.493698 
	C74.527260,235.488953 55.815449,224.688889 36.517776,213.550690 
	C58.161190,201.057846 79.243881,188.888672 101.004852,176.327972 
	C101.004852,201.379913 101.004852,225.557999 101.004852,250.463913 
	C98.413368,249.097153 96.139267,247.897781 93.552124,246.493698 
z"/>
</svg>