<svg version="1.1" id="Layer_1" xmlns="http://www.w3.org/2000/svg" xmlns:xlink="http://www.w3.org/1999/xlink" x="0px" y="0px"
	 width="100%" viewBox="0 0 439 283" enable-background="new 0 0 439 283" xml:space="preserve">
<path fill="#000000" opacity="1.000000" stroke="none" 
	d="
M332.000000,284.000000 
	C221.666656,284.000000 111.333313,284.000000 1.000000,284.000000 
	C1.000000,273.244934 1.000000,262.591125 1.318802,251.174561 
	C2.087903,251.042694 2.726877,251.610794 2.960843,252.313721 
	C8.489845,268.924713 23.001051,279.160828 40.492874,279.035736 
	C59.803036,278.897675 79.116837,278.834534 98.425583,279.049988 
	C119.470329,279.284790 137.114441,261.537567 137.021057,240.568497 
	C136.940231,222.423035 137.064728,204.276672 136.988373,186.131165 
	C136.900177,165.175888 119.868599,148.025818 98.618347,148.000885 
	C78.308372,147.977051 57.998280,147.972946 37.688477,148.036530 
	C35.955318,148.041962 34.219658,148.600601 32.492432,148.939362 
	C17.542288,151.871506 7.841376,160.731720 2.900983,175.041473 
	C2.734938,175.522430 1.654314,175.687622 0.999999,176.000000 
	C1.000000,117.737221 1.000000,59.474449 1.000000,1.000000 
	C63.020733,1.000000 125.041710,1.000000 187.825439,1.318783 
	C187.957443,2.087868 187.389526,2.726819 186.686752,2.960834 
	C169.919891,8.543974 159.912506,23.710665 159.988556,40.565151 
	C160.029114,49.553913 159.868546,58.545265 160.028168,67.531380 
	C160.224640,78.593529 159.725540,89.777946 161.201538,100.682877 
	C163.700562,119.146255 179.533585,131.636230 197.584351,131.954971 
	C211.562790,132.201782 225.550446,132.122055 239.531387,131.961136 
	C248.261871,131.860641 257.121979,132.187317 265.686920,130.828491 
	C282.752441,128.121033 295.304718,112.922920 295.855652,95.982063 
	C296.493805,76.360306 296.007080,56.701878 295.997009,37.059376 
	C295.996429,35.902828 296.072784,34.703053 295.808136,33.596371 
	C292.240143,18.675131 284.364868,7.511224 268.962555,2.896917 
	C268.494293,2.756633 268.314362,1.653978 268.000000,1.000001 
	C325.261993,1.000000 382.524017,1.000000 440.000000,1.000000 
	C440.000000,60.687389 440.000000,120.375038 439.675781,180.826492 
	C438.905334,180.953796 438.248199,180.378296 438.043854,179.671829 
	C433.362000,163.485870 417.138641,152.764114 401.078796,152.944962 
	C381.942902,153.160446 362.800232,153.188751 343.665009,152.945038 
	C321.637268,152.664490 303.816772,170.418777 303.970581,192.460449 
	C304.094849,210.266541 303.900848,228.075150 304.077148,245.880356 
	C304.111725,249.370865 304.856079,252.952011 305.856506,256.317902 
	C309.649261,269.078522 317.708160,277.870209 330.540161,282.064728 
	C331.170319,282.270721 331.519806,283.335266 332.000000,284.000000 
M282.515930,162.000336 
	C275.700958,151.833267 265.767059,146.518005 253.944168,146.163879 
	C233.641327,145.555771 213.306931,146.044754 192.986069,145.982346 
	C171.515793,145.916397 153.941605,163.291641 153.988495,185.195755 
	C154.024857,202.185425 153.947128,219.175476 154.040359,236.164719 
	C154.057236,239.238037 154.538879,242.326096 155.005493,245.376831 
	C157.876953,264.150604 174.354691,277.117249 192.784882,277.026123 
	C212.439209,276.928955 232.095062,276.900330 251.748962,277.032776 
	C272.459503,277.172333 290.048615,259.664612 290.010742,238.711182 
	C289.979126,221.221802 289.909607,203.731598 290.044403,186.243195 
	C290.111237,177.569519 288.147766,169.620483 282.515930,162.000336 
z"/>
<path fill="#FAFFFE" opacity="1.000000" stroke="none" 
	d="
M332.468658,284.000000 
	C331.519806,283.335266 331.170319,282.270721 330.540161,282.064728 
	C317.708160,277.870209 309.649261,269.078522 305.856506,256.317902 
	C304.856079,252.952011 304.111725,249.370865 304.077148,245.880356 
	C303.900848,228.075150 304.094849,210.266541 303.970581,192.460449 
	C303.816772,170.418777 321.637268,152.664490 343.665009,152.945038 
	C362.800232,153.188751 381.942902,153.160446 401.078796,152.944962 
	C417.138641,152.764114 433.362000,163.485870 438.043854,179.671829 
	C438.248199,180.378296 438.905334,180.953796 439.675781,181.295151 
	C440.000000,205.687561 440.000000,230.375122 439.675781,255.236206 
	C439.088898,255.613693 438.664581,255.769180 438.586731,256.028656 
	C434.797516,268.652039 426.534882,277.070465 414.431885,281.968231 
	C413.786255,282.229523 413.469757,283.304077 413.000000,284.000000 
	C386.312439,284.000000 359.624878,284.000000 332.468658,284.000000 
M310.933136,207.500153 
	C310.933624,220.332077 310.861816,233.164536 310.952576,245.995819 
	C311.071350,262.786682 325.039703,276.990173 341.767731,277.118561 
	C361.931061,277.273315 382.097412,277.273041 402.260742,277.118317 
	C418.805206,276.991394 432.843811,263.146271 433.067596,246.556259 
	C433.319275,227.895203 433.314453,209.225815 433.075592,190.564468 
	C432.863098,173.962509 418.995880,160.132996 402.337128,159.938293 
	C382.175934,159.702652 362.008331,159.740082 341.846283,159.940048 
	C327.490723,160.082428 314.895660,170.012131 312.101471,184.153839 
	C310.670349,191.396851 311.257812,199.038681 310.933136,207.500153 
z"/>
<path fill="#FAFFFE" opacity="1.000000" stroke="none" 
	d="
M0.999999,176.468658 
	C1.654314,175.687622 2.734938,175.522430 2.900983,175.041473 
	C7.841376,160.731720 17.542288,151.871506 32.492432,148.939362 
	C34.219658,148.600601 35.955318,148.041962 37.688477,148.036530 
	C57.998280,147.972946 78.308372,147.977051 98.618347,148.000885 
	C119.868599,148.025818 136.900177,165.175888 136.988373,186.131165 
	C137.064728,204.276672 136.940231,222.423035 137.021057,240.568497 
	C137.114441,261.537567 119.470329,279.284790 98.425583,279.049988 
	C79.116837,278.834534 59.803036,278.897675 40.492874,279.035736 
	C23.001051,279.160828 8.489845,268.924713 2.960843,252.313721 
	C2.726877,251.610794 2.087903,251.042694 1.318802,250.705902 
	C1.000000,226.312439 1.000000,201.624878 0.999999,176.468658 
M129.001968,177.826645 
	C123.623306,162.872284 112.629524,154.910828 97.003227,154.856323 
	C78.020561,154.790115 59.036301,154.714798 40.054897,154.885086 
	C21.587963,155.050735 7.977585,168.890045 7.941022,187.251984 
	C7.906207,204.736176 7.909262,222.220551 7.940133,239.704758 
	C7.973019,258.329712 21.754457,272.104675 40.435566,272.150299 
	C59.251858,272.196228 78.068367,272.178955 96.884743,272.155853 
	C116.582443,272.131683 130.073929,258.702148 130.146790,238.975845 
	C130.209534,221.991364 130.210800,205.006165 130.113678,188.022003 
	C130.095810,184.896286 129.477676,181.773987 129.001968,177.826645 
z"/>
<path fill="#FAFFFE" opacity="1.000000" stroke="none" 
	d="
M267.531342,1.000001 
	C268.314362,1.653978 268.494293,2.756633 268.962555,2.896917 
	C284.364868,7.511224 292.240143,18.675131 295.808136,33.596371 
	C296.072784,34.703053 295.996429,35.902828 295.997009,37.059376 
	C296.007080,56.701878 296.493805,76.360306 295.855652,95.982063 
	C295.304718,112.922920 282.752441,128.121033 265.686920,130.828491 
	C257.121979,132.187317 248.261871,131.860641 239.531387,131.961136 
	C225.550446,132.122055 211.562790,132.201782 197.584351,131.954971 
	C179.533585,131.636230 163.700562,119.146255 161.201538,100.682877 
	C159.725540,89.777946 160.224640,78.593529 160.028168,67.531380 
	C159.868546,58.545265 160.029114,49.553913 159.988556,40.565151 
	C159.912506,23.710665 169.919891,8.543974 186.686752,2.960834 
	C187.389526,2.726819 187.957443,2.087868 188.294098,1.318783 
	C214.354233,1.000000 240.708450,1.000000 267.531342,1.000001 
M289.161804,74.500000 
	C289.158661,62.834496 289.273102,51.167492 289.124908,39.503834 
	C288.901672,21.934078 275.279053,8.091861 257.778107,7.910300 
	C237.949219,7.704589 218.114609,7.697876 198.286026,7.919529 
	C180.531982,8.117992 166.985947,22.183636 166.942490,40.061337 
	C166.899536,57.726082 166.898544,75.391090 166.942780,93.055832 
	C166.987946,111.091888 180.846893,125.072319 198.826889,125.142624 
	C218.324585,125.218872 237.823029,125.215363 257.320740,125.142059 
	C272.780243,125.083939 286.466370,114.066399 288.669922,98.958801 
	C289.790131,91.278648 289.057312,83.328239 289.161804,74.500000 
z"/>
<path fill="#000000" opacity="1.000000" stroke="none" 
	d="
M413.468689,284.000000 
	C413.469757,283.304077 413.786255,282.229523 414.431885,281.968231 
	C426.534882,277.070465 434.797516,268.652039 438.586731,256.028656 
	C438.664581,255.769180 439.088898,255.613693 439.675781,255.704865 
	C440.000000,265.258453 440.000000,274.516876 440.000000,284.000000 
	C431.313721,284.000000 422.625519,284.000000 413.468689,284.000000 
z"/>
<path fill="#FAFFFE" opacity="1.000000" stroke="none" 
	d="
M282.773712,162.270844 
	C288.147766,169.620483 290.111237,177.569519 290.044403,186.243195 
	C289.909607,203.731598 289.979126,221.221802 290.010742,238.711182 
	C290.048615,259.664612 272.459503,277.172333 251.748962,277.032776 
	C232.095062,276.900330 212.439209,276.928955 192.784882,277.026123 
	C174.354691,277.117249 157.876953,264.150604 155.005493,245.376831 
	C154.538879,242.326096 154.057236,239.238037 154.040359,236.164719 
	C153.947128,219.175476 154.024857,202.185425 153.988495,185.195755 
	C153.941605,163.291641 171.515793,145.916397 192.986069,145.982346 
	C213.306931,146.044754 233.641327,145.555771 253.944168,146.163879 
	C265.767059,146.518005 275.700958,151.833267 282.773712,162.270844 
M238.499481,270.161804 
	C242.832382,270.160889 247.165634,270.196228 251.498108,270.152679 
	C268.988251,269.976837 282.915863,256.332428 283.103210,238.820129 
	C283.297516,220.657440 283.288483,202.489685 283.108795,184.326721 
	C282.935699,166.831604 269.165039,153.073563 251.600983,152.900543 
	C231.938324,152.706863 212.270721,152.698898 192.608215,152.899658 
	C174.515564,153.084427 160.977081,167.070343 160.940659,185.238678 
	C160.905563,202.736816 160.908157,220.235123 160.939865,237.733276 
	C160.973618,256.354401 174.778549,270.100525 193.504242,270.152740 
	C208.169296,270.193634 222.834564,270.161774 238.499481,270.161804 
z"/>
<path fill="#7FFEE0" opacity="1.000000" stroke="none" 
	d="
M310.933044,207.000214 
	C311.257812,199.038681 310.670349,191.396851 312.101471,184.153839 
	C314.895660,170.012131 327.490723,160.082428 341.846283,159.940048 
	C362.008331,159.740082 382.175934,159.702652 402.337128,159.938293 
	C418.995880,160.132996 432.863098,173.962509 433.075592,190.564468 
	C433.314453,209.225815 433.319275,227.895203 433.067596,246.556259 
	C432.843811,263.146271 418.805206,276.991394 402.260742,277.118317 
	C382.097412,277.273041 361.931061,277.273315 341.767731,277.118561 
	C325.039703,276.990173 311.071350,262.786682 310.952576,245.995819 
	C310.861816,233.164536 310.933624,220.332077 310.933044,207.000214 
M392.240753,225.754242 
	C396.163452,223.432297 400.086182,221.110367 404.535797,218.476547 
	C382.795410,205.940125 361.714111,193.783737 340.160431,181.354965 
	C340.160431,206.476135 340.160431,230.657867 340.160431,255.757309 
	C357.719696,245.621506 374.651031,235.848175 392.240753,225.754242 
z"/>
<path fill="#7FFEE0" opacity="1.000000" stroke="none" 
	d="
M129.069305,178.238373 
	C129.477676,181.773987 130.095810,184.896286 130.113678,188.022003 
	C130.210800,205.006165 130.209534,221.991364 130.146790,238.975845 
	C130.073929,258.702148 116.582443,272.131683 96.884743,272.155853 
	C78.068367,272.178955 59.251858,272.196228 40.435566,272.150299 
	C21.754457,272.104675 7.973019,258.329712 7.940133,239.704758 
	C7.909262,222.220551 7.906207,204.736176 7.941022,187.251984 
	C7.977585,168.890045 21.587963,155.050735 40.054897,154.885086 
	C59.036301,154.714798 78.020561,154.790115 97.003227,154.856323 
	C112.629524,154.910828 123.623306,162.872284 129.069305,178.238373 
M93.865173,246.698395 
	C96.139267,247.897781 98.413368,249.097153 101.004852,250.463913 
	C101.004852,225.557999 101.004852,201.379913 101.004852,176.327972 
	C79.243881,188.888672 58.161190,201.057846 36.517776,213.550690 
	C55.815449,224.688889 74.527260,235.488953 93.865173,246.698395 
z"/>
<path fill="#7FFFE0" opacity="1.000000" stroke="none" 
	d="
M289.161987,75.000000 
	C289.057312,83.328239 289.790131,91.278648 288.669922,98.958801 
	C286.466370,114.066399 272.780243,125.083939 257.320740,125.142059 
	C237.823029,125.215363 218.324585,125.218872 198.826889,125.142624 
	C180.846893,125.072319 166.987946,111.091888 166.942780,93.055832 
	C166.898544,75.391090 166.899536,57.726082 166.942490,40.061337 
	C166.985947,22.183636 180.531982,8.117992 198.286026,7.919529 
	C218.114609,7.697876 237.949219,7.704589 257.778107,7.910300 
	C275.279053,8.091861 288.901672,21.934078 289.124908,39.503834 
	C289.273102,51.167492 289.158661,62.834496 289.161987,75.000000 
M219.432602,48.912285 
	C209.917282,65.416237 200.401947,81.920181 190.696381,98.754105 
	C215.874573,98.754105 240.271851,98.754105 265.464905,98.754105 
	C252.935760,77.064484 240.714294,55.907505 228.080688,34.037071 
	C224.964249,39.420723 222.395996,43.857384 219.432602,48.912285 
z"/>
<path fill="#7FFFE0" opacity="1.000000" stroke="none" 
	d="
M237.999603,270.161987 
	C222.834564,270.161774 208.169296,270.193634 193.504242,270.152740 
	C174.778549,270.100525 160.973618,256.354401 160.939865,237.733276 
	C160.908157,220.235123 160.905563,202.736816 160.940659,185.238678 
	C160.977081,167.070343 174.515564,153.084427 192.608215,152.899658 
	C212.270721,152.698898 231.938324,152.706863 251.600983,152.900543 
	C269.165039,153.073563 282.935699,166.831604 283.108795,184.326721 
	C283.288483,202.489685 283.297516,220.657440 283.103210,238.820129 
	C282.915863,256.332428 268.988251,269.976837 251.498108,270.152679 
	C247.165634,270.196228 242.832382,270.160889 237.999603,270.161987 
M236.929443,218.425842 
	C244.335098,205.554108 251.740768,192.682388 259.368683,179.424332 
	C234.129120,179.424332 209.795975,179.424332 184.703049,179.424332 
	C197.234192,201.109955 209.453079,222.255219 222.067337,244.084671 
	C227.254288,235.118271 231.901352,227.085144 236.929443,218.425842 
z"/>
<path fill="#531B83" opacity="1.000000" stroke="none" 
	d="
M391.911560,225.914551 
	C374.651031,235.848175 357.719696,245.621506 340.160431,255.757309 
	C340.160431,230.657867 340.160431,206.476135 340.160431,181.354965 
	C361.714111,193.783737 382.795410,205.940125 404.535797,218.476547 
	C400.086182,221.110367 396.163452,223.432297 391.911560,225.914551 
z"/>
<path fill="#531B83" opacity="1.000000" stroke="none" 
	d="
M93.552124,246.493698 
	C74.527260,235.488953 55.815449,224.688889 36.517776,213.550690 
	C58.161190,201.057846 79.243881,188.888672 101.004852,176.327972 
	C101.004852,201.379913 101.004852,225.557999 101.004852,250.463913 
	C98.413368,249.097153 96.139267,247.897781 93.552124,246.493698 
z"/>
<path fill="#531B83" opacity="1.000000" stroke="none" 
	d="
M219.630173,48.603165 
	C222.395996,43.857384 224.964249,39.420723 228.080688,34.037071 
	C240.714294,55.907505 252.935760,77.064484 265.464905,98.754105 
	C240.271851,98.754105 215.874573,98.754105 190.696381,98.754105 
	C200.401947,81.920181 209.917282,65.416237 219.630173,48.603165 
z"/>
<path fill="#541D83" opacity="1.000000" stroke="none" 
	d="
M236.738922,218.738922 
	C231.901352,227.085144 227.254288,235.118271 222.067337,244.084671 
	C209.453079,222.255219 197.234192,201.109955 184.703049,179.424332 
	C209.795975,179.424332 234.129120,179.424332 259.368683,179.424332 
	C251.740768,192.682388 244.335098,205.554108 236.738922,218.738922 
z"/>
</svg>