<svg xmlns="http://www.w3.org/2000/svg" viewBox="310.807 159.676 122.5 117.7">
	<path stroke="none" fill="rgba(0,0,0,0.3)"  d="M 310.933 207.0002 C 311.2578 199.0387 310.6703 191.3969 312.1015 184.1538 C 314.8957 170.0121 327.4907 160.0824 341.8463 159.94 C 362.0083 159.7401 382.1759 159.7027 402.3371 159.9383 C 418.9959 160.133 432.8631 173.9625 433.0756 190.5645 C 433.3145 209.2258 433.3193 227.8952 433.0676 246.5563 C 432.8438 263.1463 418.8052 276.9914 402.2607 277.1183 C 382.0974 277.273 361.9311 277.2733 341.7677 277.1186 C 325.0397 276.9902 311.0713 262.7867 310.9526 245.9958 C 310.8618 233.1645 310.9336 220.3321 310.933 207.0002 M 392.2408 225.7542 C 396.1635 223.4323 400.0862 221.1104 404.5358 218.4765 C 382.7954 205.9401 361.7141 193.7837 340.1604 181.355 C 340.1604 206.4761 340.1604 230.6579 340.1604 255.7573 C 357.7197 245.6215 374.651 235.8482 392.2408 225.7542 z z" />
	<path d="M391.911560,225.914551 
	C374.651031,235.848175 357.719696,245.621506 340.160431,255.757309 
	C340.160431,230.657867 340.160431,206.476135 340.160431,181.354965 
	C361.714111,193.783737 382.795410,205.940125 404.535797,218.476547 
	C400.086182,221.110367 396.163452,223.432297 391.911560,225.914551 
z" stroke="none"/>
</svg>