<svg xmlns="http://www.w3.org/2000/svg" 
viewBox="166.81 7.65465 122.6 117.6">
	<path stroke="none" fill="rgba(0,0,0,0.3)" 
	d="M289.161987,75.000000 
	C289.057312,83.328239 289.790131,91.278648 288.669922,98.958801 
	C286.466370,114.066399 272.780243,125.083939 257.320740,125.142059 
	C237.823029,125.215363 218.324585,125.218872 198.826889,125.142624 
	C180.846893,125.072319 166.987946,111.091888 166.942780,93.055832 
	C166.898544,75.391090 166.899536,57.726082 166.942490,40.061337 
	C166.985947,22.183636 180.531982,8.117992 198.286026,7.919529 
	C218.114609,7.697876 237.949219,7.704589 257.778107,7.910300 
	C275.279053,8.091861 288.901672,21.934078 289.124908,39.503834 
	C289.273102,51.167492 289.158661,62.834496 289.161987,75.000000 
	M219.432602,48.912285 
	C209.917282,65.416237 200.401947,81.920181 190.696381,98.754105 
	C215.874573,98.754105 240.271851,98.754105 265.464905,98.754105 
	C252.935760,77.064484 240.714294,55.907505 228.080688,34.037071 
	C224.964249,39.420723 222.395996,43.857384 219.432602,48.912285 
z"/>
	<path stroke="none" 
	d="
	M219.630173,48.603165 
	C222.395996,43.857384 224.964249,39.420723 228.080688,34.037071 
	C240.714294,55.907505 252.935760,77.064484 265.464905,98.754105 
	C240.271851,98.754105 215.874573,98.754105 190.696381,98.754105 
	C200.401947,81.920181 209.917282,65.416237 219.630173,48.603165 
z"/>
</svg>