<svg xmlns="http://www.w3.org/2000/svg" 
viewBox="7.70556 7.81845 122.5 117.5">
	<path stroke="none" fill="rgba(0,0,0,0.3)" d="
	M 109.7645 123.0212 C 105.49 123.808 101.5991 125.0306 97.6958 125.0714 C 78.3867 125.2737 59.0743 125.1974 39.7632 125.1536 
	C 21.6703 125.1126 7.9069 111.3651 7.849 93.2562 C 7.7921 75.4435 7.7898 57.6302 7.8498 39.8175 C 7.9103 21.8262 21.8565 7.9606 39.8486 7.9373 
	C 59.1597 7.9123 78.471 7.9121 97.7822 7.9371 C 115.5388 7.96 129.9048 22.0531 130.0365 39.7657 
	C 130.1639 56.9118 130.0478 74.0596 130.0745 91.2065 C 130.0975 105.9817 123.6158 116.637 109.7645 123.0212 
	M 49.1436 75.4981 C 49.1436 80.3091 49.1436 85.1201 49.1436 89.9058 C 58.6562 92.5828 74.1722 89.3752 81.2602 83.051 
	C 89.1393 76.021 90.9639 66.9405 88.7419 57.0943 C 86.8741 48.8179 81.0483 43.5207 72.8558 42.5052 
	C 66.2149 41.682 59.313 42.6909 52.5647 43.3038 C 51.5517 43.3958 50.0273 45.7297 49.9596 47.0873 
	C 49.5045 56.2156 49.379 65.3603 49.1436 75.4981 z" />
	
	<path stroke="none" d="M 49.1451 74.9989 C 49.379 65.3603 49.5045 56.2156 49.9596 47.0873 
	C 50.0273 45.7297 51.5517 43.3958 52.5647 43.3038 C 59.313 42.6909 66.2149 41.682 72.8558 42.5052 
	C 81.0483 43.5207 86.8741 48.8179 88.7419 57.0943 C 90.9639 66.9405 89.1393 76.021 81.2602 83.051 
	C 74.1722 89.3752 58.6562 92.5828 49.1436 89.9058 C 49.1436 85.1201 49.1436 80.3091 49.1451 74.9989 
	M 65.908 70.122 C 65.7887 72.2167 65.6694 74.3115 65.5444 76.5057 C 71.5684 75.115 74.9555 71.0945 74.8624 65.7973 
	C 74.7705 60.5664 72.4341 57.7938 66.8399 56.9596 C 66.5467 61.0757 66.2564 65.1523 65.908 70.122 z "/>

	<path stroke="none" fill="rgba(0,0,0,0.3)" d="
	M 65.937 69.6755 C 66.2564 65.1523 66.5467 61.0757 66.8399 56.9596 C 72.4341 57.7938 74.7705 60.5664 74.8624 65.7973 
	C 74.9555 71.0945 71.5684 75.115 65.5444 76.5057 C 65.6694 74.3115 65.7887 72.2167 65.937 69.6755 z"/>
</svg>